<svg width="30" height="24" viewBox="0 0 30 24" fill="none" xmlns="http://www.w3.org/2000/svg">
<path d="M27.7 20.7039L7.57143 4.57797L1.85714 0L0 1.41917L4.94286 5.37911L2.7 10.5751V19.731C2.7 20.0346 2.85051 20.3257 3.11842 20.5403C3.38633 20.755 3.74969 20.8755 4.12857 20.8755H5.55714C5.93602 20.8755 6.29939 20.755 6.5673 20.5403C6.8352 20.3257 6.98571 20.0346 6.98571 19.731V18.5866H21.4286L28.1857 24L30 22.5465L27.7 20.7039ZM7.7 15.1531C7.13168 15.1531 6.58663 14.9722 6.18477 14.6503C5.78291 14.3283 5.55714 13.8916 5.55714 13.4363C5.55714 12.981 5.78291 12.5444 6.18477 12.2224C6.58663 11.9005 7.13168 11.7196 7.7 11.7196C8.26832 11.7196 8.81336 11.9005 9.21523 12.2224C9.61709 12.5444 9.84286 12.981 9.84286 13.4363C9.84286 13.8916 9.61709 14.3283 9.21523 14.6503C8.81336 14.9722 8.26832 15.1531 7.7 15.1531ZM5.55714 9.43062L6.67143 6.76395L10 9.43062H5.55714ZM23.4143 4.2804L25.5571 9.43062H17.2714L21.4429 12.7725C21.9857 11.9142 23.2286 11.5594 24.3 11.9599C25.3714 12.372 25.8143 13.402 25.3143 14.2489C25.1 14.5808 24.7429 14.8898 24.3 15.0615L28.4143 18.3577V10.5751L25.4429 3.70815C25.1429 3.02146 24.3286 2.56366 23.4143 2.56366H8.7L10.8429 4.2804H23.4143Z" fill="white"/>
</svg>
